<svg width="778" height="59" viewBox="0 0 778 59" fill="none" xmlns="http://www.w3.org/2000/svg">
<path d="M57.68 46.24H12.64V1.6H0V57.6H57.68V46.24Z" fill="black"/>
<path d="M67.2656 57.6H130.546V46.24H79.9056V34.72H117.426V23.6H79.9056V12.96H130.546V1.6H67.2656V57.6Z" fill="black"/>
<path d="M177.156 47.52C162.836 47.52 148.756 44.72 148.756 31.36V27.28C148.756 13.92 162.836 11.12 177.156 11.12C187.156 11.12 197.076 12.48 202.116 17.92H216.356C211.956 5.12 197.636 0 177.156 0C152.276 0 136.516 7.52 136.516 27.28V31.36C136.516 51.12 152.276 58.64 177.156 58.64C202.036 58.64 217.796 51.12 217.796 31.36V23.6H162.756V34.72H205.236C202.996 45.2 190.196 47.52 177.156 47.52Z" fill="black"/>
<path d="M227.812 57.6H291.092V46.24H240.452V34.72H277.973V23.6H240.452V12.96H291.092V1.6H227.812V57.6Z" fill="black"/>
<path d="M374.684 1.6H362.044V42.56L314.444 1.6H301.484V57.6H314.124V16.72L361.724 57.6H374.684V1.6Z" fill="black"/>
<path d="M386.719 57.6H420.559C445.439 57.6 459.359 50.56 459.359 30.8V28.4C459.359 8.64 445.439 1.6 420.559 1.6H386.719V57.6ZM420.559 12.96C434.879 12.96 447.119 15.04 447.119 28.4V30.8C447.119 44.16 434.879 46.24 420.559 46.24H399.359V12.96H420.559Z" fill="black"/>
<path d="M531.409 57.6H545.089L512.929 1.6H491.569L459.409 57.6H473.089L481.169 43.52H523.329L531.409 57.6ZM487.489 32.48L502.289 6.8L517.009 32.48H487.489Z" fill="black"/>
<path d="M550.675 12.96H572.435V46.24H550.675V57.6H606.835V46.24H585.075V12.96H606.835V1.6H550.675V12.96Z" fill="black"/>
<path d="M617.656 57.6H630.296V38.16L637.976 37.44L681.656 57.6H706.936L659.096 35.6L673.896 34.24C686.136 33.2 693.656 29.2 693.656 18.08C693.656 7.76 686.136 1.6 673.896 1.6H617.656V57.6ZM674.696 12.96C678.536 12.96 681.176 14.4 681.176 18.08C681.176 21.68 678.536 23.2 674.696 23.52L630.296 27.52V12.96H674.696Z" fill="black"/>
<path d="M742.223 34L777.343 1.6H759.583L735.903 23.68L712.143 1.6H694.303L729.583 34V57.6H742.223V34Z" fill="black"/>
</svg>
